<svg id="XMLID_1_" xmlns="http://www.w3.org/2000/svg" width="150" height="113.626" viewBox="0 0 150 113.626">
  <g id="XMLID_19_">
    <g id="XMLID_31_" transform="translate(17.62)">
      <path id="XMLID_32_" d="M24.516,98.265a58.726,58.726,0,0,1-12.2-17.62A61.574,61.574,0,0,1,7.8,57.6,57.6,57.6,0,1,1,118.038,80.871a59.885,59.885,0,0,1-11.973,17.394C95,109.108,35.585,109.108,24.516,98.265Z" transform="translate(-7.8 0)" fill="#fff"/>
    </g>
    <g id="XMLID_27_" transform="translate(0 79.29)">
      <path id="XMLID_28_" d="M132.15,69.436H18.072C8.132,69.436,0,61.756,0,52.268S8.132,35.1,18.072,35.1H131.924C141.863,35.1,150,42.78,150,52.268,150.221,61.756,142.089,69.436,132.15,69.436ZM18.072,40.3c-7.229,0-13.1,5.422-13.1,11.973.226,6.551,6.1,11.973,13.1,11.973H131.924c7.229,0,13.1-5.422,13.1-11.973S139.152,40.3,131.924,40.3Z" transform="translate(0 -35.1)" fill="#fff"/>
    </g>
    <g id="XMLID_23_" transform="translate(20.105 2.485)">
      <path id="XMLID_24_" d="M64.019,107.046c-6.325,0-13.78-.226-20.782-2.033a39.049,39.049,0,0,1-18.3-9.939A54.494,54.494,0,0,1,8.9,56.219,55.049,55.049,0,0,1,64.019,1.1a54.76,54.76,0,0,1,54.893,54.893,54.494,54.494,0,0,1-16.039,38.854C91.8,106.142,77.121,107.046,64.019,107.046Zm0-102.105A51.275,51.275,0,0,0,27.649,92.362c9.036,9.036,21.008,10.843,36.369,10.843A87.957,87.957,0,0,0,83.9,101.4a32.165,32.165,0,0,0,16.265-9.036A51.279,51.279,0,0,0,64.019,4.94Z" transform="translate(-8.9 -1.1)" fill="#d10007"/>
    </g>
    <path id="XMLID_22_" d="M62.005,105.709A51.5,51.5,0,1,0,10.5,54.2,51.482,51.482,0,0,0,62.005,105.709Z" transform="translate(13.218 3.399)" fill="#00559c"/>
    <path id="XMLID_21_" d="M130.765,65.215c8.584,0,15.587-6.551,15.587-14.457h0c0-7.906-7-14.457-15.587-14.457H16.687C8.1,36.3,1.1,42.851,1.1,50.757h0c0,7.906,7,14.457,15.587,14.457Z" transform="translate(1.385 45.701)" fill="#d10007"/>
    <path id="XMLID_20_" d="M108.233,56.191l-7.906-10.617a1.092,1.092,0,0,0-1.581,0l-3.614,4.292-.9.9L60.8,11.689a1.092,1.092,0,0,0-1.581,0L34.591,39.474l-.9-.678L28.04,33.375a1.374,1.374,0,0,0-1.807,0L11.775,49.64c-.452.452-.452.678.226.226L26.233,39.022c2.033,1.807,7.906,7.68,10.617,9.939.678.678,1.355,1.129,1.581.678.678-.678.9-1.581,2.033-1.129.9.452,9.488,6.777,10.843,7.906L54.7,58.9h0L37.076,41.959l-.9-.9,15.135-13.78s3.163-2.937,5.422-4.97C60.8,27.5,70.509,39.7,71.864,39.474s.9-3.614,2.259-2.937c1.355.9,14.457,12.65,14.457,12.65l4.292,3.84a1.769,1.769,0,0,0,1.807.226l3.614-2.259a1.686,1.686,0,0,1,2.033,0l7.68,5.422C108.459,56.868,108.459,56.868,108.233,56.191Z" transform="translate(14.429 14.289)" fill="#fff"/>
  </g>
  <g id="XMLID_2_" transform="translate(12.65 86.744)">
    <path id="XMLID_16_" d="M25.027,47.536a9.373,9.373,0,0,1-9.714,9.714A9.373,9.373,0,0,1,5.6,47.536c0-5.2,4.744-9.036,9.714-9.036S25.027,42.114,25.027,47.536Zm-14.683,0a5.066,5.066,0,0,0,4.97,5.2,5.066,5.066,0,0,0,4.97-5.2,4.789,4.789,0,0,0-4.97-4.518A4.644,4.644,0,0,0,10.344,47.536Z" transform="translate(-5.6 -38.274)" fill="#fff"/>
    <path id="XMLID_14_" d="M20.218,52.354h5.422v3.84H15.7V38.8h4.518Z" transform="translate(7.116 -37.896)" fill="#fff"/>
    <path id="XMLID_12_" d="M19.7,38.8h5.422l3.163,4.744L31.447,38.8h5.422l-6.551,9.036v8.358H25.8V47.836Z" transform="translate(12.151 -37.896)" fill="#fff"/>
    <path id="XMLID_10_" d="M30.637,38.8h4.518l3.614,9.262,3.84-9.262h4.518l2.711,17.394H45.32L43.739,46.029h0L39.447,56.194H37.639L33.573,46.029h0L32.218,56.194H27.7Z" transform="translate(22.223 -37.896)" fill="#fff"/>
    <path id="XMLID_7_" d="M39,38.8h7c3.84,0,6.325,1.807,6.325,5.647,0,4.066-2.259,5.873-6.1,5.873H43.518v5.873H39Zm4.518,7.906H44.2c1.581,0,3.163,0,3.163-2.033,0-2.259-1.581-2.259-3.163-2.259h-.678Z" transform="translate(36.45 -37.896)" fill="#fff"/>
    <path id="XMLID_5_" d="M61.461,38.8v9.714c0,2.259,0,4.518-1.807,6.1a9.281,9.281,0,0,1-5.873,2.033,8.149,8.149,0,0,1-5.873-2.033c-1.807-1.581-1.807-3.84-1.807-6.1V38.8h4.518v9.262c0,2.259.226,4.744,3.163,4.744s3.163-2.485,3.163-4.744V38.8Z" transform="translate(45.388 -37.896)" fill="#fff"/>
    <path id="XMLID_3_" d="M64.591,43.6a4.758,4.758,0,0,0-2.937-1.129c-.9,0-2.033.452-2.033,1.355s1.129,1.355,2.033,1.581l1.129.452c2.485.678,4.292,2.033,4.292,4.744a5.977,5.977,0,0,1-1.807,4.744,7.7,7.7,0,0,1-4.97,1.581,9.912,9.912,0,0,1-6.1-2.033l2.033-3.614A6.728,6.728,0,0,0,60.3,53.083c1.129,0,2.259-.452,2.259-1.807s-1.807-1.807-2.711-2.033c-2.937-.9-4.744-1.581-4.744-4.97,0-3.614,2.485-5.873,6.1-5.873a11.351,11.351,0,0,1,5.422,1.355Z" transform="translate(55.586 -38.4)" fill="#fff"/>
  </g>
</svg>
