<svg xmlns="http://www.w3.org/2000/svg" version="1.1" style="font-family:Lato, &#x27;Helvetica Neue&#x27;, Helvetica, Arial, &#x27;Liberation Sans&#x27;, sans-serif;font-size:18px;background-color:white;text-rendering:geometricPrecision;-webkit-font-smoothing:antialiased" width="850" height="600" viewBox="0 0 850 600"><defs><style>@import url(https://ourworldindata.org/fonts.css)</style></defs><defs><pattern id="noDataPattern" patternUnits="userSpaceOnUse" width="4" height="4" patternTransform="rotate(-45 2 2)"><path d="M -1,2 l 6,0" stroke="#ccc" stroke-width="0.7"></path></pattern></defs><rect class="background-fill" fill="white" width="850" height="600"></rect><g class="HeaderView"><g transform="translate(769, 16) scale(1)"><svg className="owidLogo" xmlns="http://www.w3.org/2000/svg" width="65" height="36" viewBox="0 0 65 36"  fill="none"><path fill="#002147" d="M0 0h64.8v36H0z"/><path fill="#CE261E" d="M0 33.3h64.8V36H0z"/><path fill="#fff" d="M13.796 10.575c0 .636-.106 1.226-.318 1.77a4.193 4.193 0 0 1-.894 1.404 4.084 4.084 0 0 1-1.386.93c-.54.22-1.138.33-1.794.33-.656 0-1.256-.11-1.8-.33a4.149 4.149 0 0 1-1.392-.93 4.193 4.193 0 0 1-.894-1.404A4.833 4.833 0 0 1 5 10.575c0-.636.106-1.224.318-1.764a4.18 4.18 0 0 1 .894-1.41 4.076 4.076 0 0 1 1.392-.924 4.684 4.684 0 0 1 1.8-.336c.656 0 1.254.112 1.794.336.54.224 1.002.534 1.386.93.384.392.682.86.894 1.404.212.54.318 1.128.318 1.764Zm-1.656 0c0-.476-.064-.902-.192-1.278a2.671 2.671 0 0 0-.54-.966 2.332 2.332 0 0 0-.864-.606 2.94 2.94 0 0 0-1.14-.21c-.424 0-.806.07-1.146.21-.34.14-.63.342-.87.606a2.742 2.742 0 0 0-.546.966 3.955 3.955 0 0 0-.192 1.278c0 .476.064.904.192 1.284.128.376.31.696.546.96.24.26.53.46.87.6.34.14.722.21 1.146.21.424 0 .804-.07 1.14-.21.34-.14.628-.34.864-.6.236-.264.416-.584.54-.96a4.01 4.01 0 0 0 .192-1.284ZM16.104 8.757v3.912c0 .376.086.668.258.876.176.204.438.306.786.306.256 0 .496-.056.72-.168a2.58 2.58 0 0 0 .636-.474V8.757h1.482v6.156h-.906c-.192 0-.318-.09-.378-.27l-.102-.492a4.65 4.65 0 0 1-.396.354 2.577 2.577 0 0 1-.438.27 2.35 2.35 0 0 1-.498.168 2.345 2.345 0 0 1-.57.066c-.336 0-.634-.056-.894-.168a1.821 1.821 0 0 1-.648-.486 2.157 2.157 0 0 1-.402-.738 3.233 3.233 0 0 1-.132-.948V8.757h1.482ZM21.328 14.913V8.757h.87c.152 0 .258.028.318.084.06.056.1.152.12.288l.09.744c.22-.38.478-.68.774-.9.296-.22.628-.33.996-.33.304 0 .556.07.756.21l-.192 1.11c-.012.072-.038.124-.078.156a.278.278 0 0 1-.162.042 1.01 1.01 0 0 1-.246-.042 1.646 1.646 0 0 0-.414-.042c-.308 0-.572.086-.792.258-.22.168-.406.416-.558.744v3.834h-1.482ZM27.347 6.237h1.356a.57.57 0 0 1 .348.102c.096.064.16.152.192.264l1.476 5.19c.036.128.068.268.096.42.032.148.062.306.09.474a5.968 5.968 0 0 1 .228-.894l1.704-5.19a.575.575 0 0 1 .186-.252.543.543 0 0 1 .348-.114h.474a.57.57 0 0 1 .348.102.497.497 0 0 1 .192.264l1.692 5.19c.088.256.164.54.228.852.028-.156.056-.306.084-.45.032-.144.064-.278.096-.402l1.476-5.19c.028-.1.09-.186.186-.258a.563.563 0 0 1 .348-.108h1.266l-2.694 8.676h-1.458l-1.896-5.928-.078-.246a9.504 9.504 0 0 1-.072-.282c-.024.1-.05.194-.078.282-.024.088-.048.17-.072.246l-1.914 5.928H30.04l-2.694-8.676ZM42.771 8.661c.46 0 .876.074 1.248.222.376.148.696.358.96.63s.468.604.612.996c.144.392.216.83.216 1.314 0 .488-.072.928-.216 1.32a2.85 2.85 0 0 1-.612 1.002 2.653 2.653 0 0 1-.96.636 3.35 3.35 0 0 1-1.248.222c-.46 0-.878-.074-1.254-.222a2.712 2.712 0 0 1-.966-.636 2.922 2.922 0 0 1-.618-1.002 3.807 3.807 0 0 1-.216-1.32c0-.484.072-.922.216-1.314.148-.392.354-.724.618-.996.268-.272.59-.482.966-.63a3.397 3.397 0 0 1 1.254-.222Zm0 5.202c.512 0 .89-.172 1.134-.516.248-.344.372-.848.372-1.512s-.124-1.17-.372-1.518c-.244-.348-.622-.522-1.134-.522-.52 0-.904.176-1.152.528-.248.348-.372.852-.372 1.512s.124 1.164.372 1.512c.248.344.632.516 1.152.516ZM46.723 14.913V8.757h.87c.152 0 .258.028.318.084.06.056.1.152.12.288l.09.744c.22-.38.478-.68.774-.9.296-.22.628-.33.996-.33.304 0 .556.07.756.21l-.192 1.11c-.012.072-.038.124-.078.156a.278.278 0 0 1-.162.042 1.01 1.01 0 0 1-.246-.042 1.646 1.646 0 0 0-.414-.042c-.308 0-.572.086-.792.258-.22.168-.406.416-.558.744v3.834h-1.482ZM52.96 5.997v8.916h-1.482V5.997h1.482ZM58.732 14.913c-.192 0-.318-.09-.378-.27l-.12-.594a3.68 3.68 0 0 1-.402.39c-.14.116-.292.216-.456.3-.16.084-.334.148-.522.192a2.372 2.372 0 0 1-.6.072c-.336 0-.644-.07-.924-.21a2.098 2.098 0 0 1-.726-.606 3.033 3.033 0 0 1-.468-.99 5.072 5.072 0 0 1-.162-1.344c0-.456.062-.88.186-1.272s.302-.732.534-1.02c.232-.288.51-.512.834-.672a2.384 2.384 0 0 1 1.092-.246 2.103 2.103 0 0 1 1.536.606V5.997h1.482v8.916h-.906Zm-1.974-1.086c.308 0 .57-.064.786-.192.216-.128.42-.31.612-.546v-2.76a1.452 1.452 0 0 0-.552-.432 1.597 1.597 0 0 0-.636-.126c-.224 0-.428.042-.612.126a1.21 1.21 0 0 0-.462.384c-.124.168-.22.384-.288.648-.068.26-.102.568-.102.924 0 .36.028.666.084.918.06.248.144.452.252.612.108.156.24.27.396.342.156.068.33.102.522.102ZM16.331 20.757v6.156H14.85v-6.156h1.481Zm.223-1.794a.844.844 0 0 1-.078.36.963.963 0 0 1-.21.294.995.995 0 0 1-.3.204.963.963 0 0 1-.372.072.948.948 0 0 1-.367-.072 1.018 1.018 0 0 1-.498-.498.963.963 0 0 1 0-.732.995.995 0 0 1 .205-.3.929.929 0 0 1 .293-.198.899.899 0 0 1 .738 0 .912.912 0 0 1 .3.198.943.943 0 0 1 .288.672ZM17.771 26.913v-6.156h.906c.192 0 .318.09.378.27l.102.486a2.934 2.934 0 0 1 .828-.618c.156-.076.322-.134.498-.174.176-.04.368-.06.576-.06.336 0 .634.058.894.174.26.112.476.272.648.48.176.204.308.45.396.738.092.284.138.598.138.942v3.918h-1.482v-3.918c0-.376-.088-.666-.264-.87-.172-.208-.432-.312-.78-.312-.256 0-.496.058-.72.174a2.58 2.58 0 0 0-.636.474v4.452h-1.482ZM34.22 22.575c0 .636-.106 1.22-.318 1.752-.212.532-.51.99-.894 1.374a4 4 0 0 1-1.386.894 4.87 4.87 0 0 1-1.794.318h-3.312v-8.676h3.312a4.79 4.79 0 0 1 1.794.324 4 4 0 0 1 1.386.894c.384.38.682.836.894 1.368.212.532.318 1.116.318 1.752Zm-1.65 0c0-.476-.064-.902-.192-1.278a2.68 2.68 0 0 0-.546-.96 2.332 2.332 0 0 0-.864-.606 2.94 2.94 0 0 0-1.14-.21h-1.686v6.108h1.686c.424 0 .804-.07 1.14-.21.34-.14.628-.34.864-.6a2.75 2.75 0 0 0 .546-.96 4.01 4.01 0 0 0 .192-1.284ZM39.98 26.913h-.665c-.14 0-.25-.02-.33-.06-.08-.044-.14-.13-.18-.258l-.132-.438c-.156.14-.31.264-.462.372a2.804 2.804 0 0 1-.462.264c-.16.072-.33.126-.51.162-.18.036-.38.054-.6.054-.26 0-.5-.034-.72-.102a1.618 1.618 0 0 1-.57-.318 1.448 1.448 0 0 1-.366-.522 1.852 1.852 0 0 1-.132-.726c0-.232.06-.46.18-.684.124-.228.328-.432.612-.612.284-.184.662-.336 1.134-.456.472-.12 1.058-.188 1.758-.204v-.36c0-.412-.088-.716-.264-.912-.172-.2-.424-.3-.756-.3a1.837 1.837 0 0 0-1.02.276c-.116.068-.224.13-.324.186a.664.664 0 0 1-.33.084.429.429 0 0 1-.258-.078.614.614 0 0 1-.174-.192l-.27-.474c.708-.648 1.562-.972 2.562-.972.36 0 .68.06.96.18.284.116.524.28.72.492.196.208.344.458.444.75.104.292.156.612.156.96v3.888Zm-2.88-.924c.153 0 .293-.014.42-.042.129-.028.249-.07.36-.126.117-.056.227-.124.33-.204.109-.084.217-.182.325-.294v-1.038c-.432.02-.794.058-1.086.114-.288.052-.52.12-.696.204a.923.923 0 0 0-.378.294.664.664 0 0 0-.108.366c0 .26.076.446.228.558.156.112.358.168.606.168ZM43.22 27.01c-.532 0-.942-.15-1.23-.45-.288-.305-.432-.723-.432-1.255v-3.438h-.624a.31.31 0 0 1-.21-.078c-.056-.052-.084-.13-.084-.234v-.588l.99-.162.312-1.68a.302.302 0 0 1 .108-.186.365.365 0 0 1 .222-.066h.768v1.938h1.62v1.056h-1.62v3.336c0 .192.048.342.144.45a.488.488 0 0 0 .384.162c.092 0 .168-.01.228-.03.064-.024.118-.048.162-.072.048-.024.09-.046.126-.066a.194.194 0 0 1 .108-.036.16.16 0 0 1 .108.036c.028.02.058.052.09.096l.444.72c-.216.18-.464.316-.744.408a2.77 2.77 0 0 1-.87.138ZM50.423 26.913h-.666c-.14 0-.25-.02-.33-.06-.08-.044-.14-.13-.18-.258l-.132-.438c-.156.14-.31.264-.462.372a2.804 2.804 0 0 1-.462.264c-.16.072-.33.126-.51.162-.18.036-.38.054-.6.054-.26 0-.5-.034-.72-.102a1.618 1.618 0 0 1-.57-.318 1.448 1.448 0 0 1-.366-.522 1.852 1.852 0 0 1-.132-.726c0-.232.06-.46.18-.684.124-.228.328-.432.612-.612.284-.184.662-.336 1.134-.456.472-.12 1.058-.188 1.758-.204v-.36c0-.412-.088-.716-.264-.912-.172-.2-.424-.3-.756-.3a1.837 1.837 0 0 0-1.02.276c-.116.068-.224.13-.324.186a.664.664 0 0 1-.33.084.429.429 0 0 1-.258-.078.614.614 0 0 1-.174-.192l-.27-.474c.708-.648 1.562-.972 2.562-.972.36 0 .68.06.96.18.284.116.524.28.72.492.196.208.344.458.444.75.104.292.156.612.156.96v3.888Zm-2.88-.924c.152 0 .292-.014.42-.042.128-.028.248-.07.36-.126.116-.056.226-.124.33-.204.108-.084.216-.182.324-.294v-1.038c-.432.02-.794.058-1.086.114-.288.052-.52.12-.696.204a.923.923 0 0 0-.378.294.664.664 0 0 0-.108.366c0 .26.076.446.228.558.156.112.358.168.606.168Z"/></svg></g><a href="https://ourworldindata.org/explorers/population-and-demography?facet=none&amp;country=CHN~IND~USA~IDN~PAK~OWID_WRL&amp;hideControls=false&amp;Metric=Population&amp;Sex=Both+sexes&amp;Age+group=Total&amp;Projection+Scenario=None" style="font-family:&#x27;Playfair Display&#x27;, Georgia, &#x27;Times New Roman&#x27;, &#x27;Liberation Serif&#x27;, serif" target="_blank" rel="noopener"><text font-size="24.75" font-weight="600" x="16.0" y="40.0" fill="#5b5b5b"><tspan x="16" y="40.0075">Population, 1950 to 2021</tspan></text></a></g><g style="pointer-events:none"><g class="LineChart"><defs><clipPath id="boundsClip-2"><rect x="56.900000000000006" y="58" width="838" height="503.8"></rect></clipPath></defs><rect x="16" y="68" width="818" height="483.8" fill="none"></rect><g class="DualAxisView"><g class="HorizontalAxis"><line x1="66.9" y1="531.3" x2="66.9" y2="536.3" stroke="#999" stroke-width="1"></line><line x1="717.6" y1="531.3" x2="717.6" y2="536.3" stroke="#999" stroke-width="1"></line><line x1="158.5" y1="531.3" x2="158.5" y2="536.3" stroke="#999" stroke-width="1"></line><line x1="250.2" y1="531.3" x2="250.2" y2="536.3" stroke="#999" stroke-width="1"></line><line x1="341.8" y1="531.3" x2="341.8" y2="536.3" stroke="#999" stroke-width="1"></line><line x1="433.5" y1="531.3" x2="433.5" y2="536.3" stroke="#999" stroke-width="1"></line><line x1="525.1" y1="531.3" x2="525.1" y2="536.3" stroke="#999" stroke-width="1"></line><line x1="616.8" y1="531.3" x2="616.8" y2="536.3" stroke="#999" stroke-width="1"></line><text x="66.9" y="549.8" fill="#5b5b5b" text-anchor="start" font-size="13.5">1950</text><text x="717.595" y="549.8" fill="#5b5b5b" text-anchor="end" font-size="13.5">2021</text><text x="158.5" y="549.8" fill="#5b5b5b" text-anchor="middle" font-size="13.5">1960</text><text x="250.2" y="549.8" fill="#5b5b5b" text-anchor="middle" font-size="13.5">1970</text><text x="341.8" y="549.8" fill="#5b5b5b" text-anchor="middle" font-size="13.5">1980</text><text x="433.5" y="549.8" fill="#5b5b5b" text-anchor="middle" font-size="13.5">1990</text><text x="525.1" y="549.8" fill="#5b5b5b" text-anchor="middle" font-size="13.5">2000</text><text x="616.8" y="549.8" fill="#5b5b5b" text-anchor="middle" font-size="13.5">2010</text></g><g class="VerticalAxis"><text x="61.90" y="531.3" dy=".32em" text-anchor="end" fill="#5b5b5b" font-size="13.5">0</text><text x="61.90" y="473.5" dy=".32em" text-anchor="end" fill="#5b5b5b" font-size="13.5">1 billion</text><text x="61.90" y="415.7" dy=".32em" text-anchor="end" fill="#5b5b5b" font-size="13.5">2 billion</text><text x="61.90" y="357.8" dy=".32em" text-anchor="end" fill="#5b5b5b" font-size="13.5">3 billion</text><text x="61.90" y="300" dy=".32em" text-anchor="end" fill="#5b5b5b" font-size="13.5">4 billion</text><text x="61.90" y="242.2" dy=".32em" text-anchor="end" fill="#5b5b5b" font-size="13.5">5 billion</text><text x="61.90" y="184.4" dy=".32em" text-anchor="end" fill="#5b5b5b" font-size="13.5">6 billion</text><text x="61.90" y="126.6" dy=".32em" text-anchor="end" fill="#5b5b5b" font-size="13.5">7 billion</text></g><g class="AxisGridLines horizontalLines"><line x1="66.90" y1="531.3" x2="717.60" y2="531.3" stroke="#999" stroke-width="1"></line><line x1="66.90" y1="473.5" x2="717.60" y2="473.5" stroke="#ddd" stroke-width="1" stroke-dasharray="3,2"></line><line x1="66.90" y1="415.7" x2="717.60" y2="415.7" stroke="#ddd" stroke-width="1" stroke-dasharray="3,2"></line><line x1="66.90" y1="357.8" x2="717.60" y2="357.8" stroke="#ddd" stroke-width="1" stroke-dasharray="3,2"></line><line x1="66.90" y1="300" x2="717.60" y2="300" stroke="#ddd" stroke-width="1" stroke-dasharray="3,2"></line><line x1="66.90" y1="242.2" x2="717.60" y2="242.2" stroke="#ddd" stroke-width="1" stroke-dasharray="3,2"></line><line x1="66.90" y1="184.4" x2="717.60" y2="184.4" stroke="#ddd" stroke-width="1" stroke-dasharray="3,2"></line><line x1="66.90" y1="126.6" x2="717.60" y2="126.6" stroke="#ddd" stroke-width="1" stroke-dasharray="3,2"></line></g></g><g clip-path="url(#boundsClip-2)"><g class="LineLabels" style="cursor:default"><g class="legendMark"><g class="indicator"><path d="M721.595,74 H735.095 V80.75 H748.595" stroke="#999" stroke-width="0.5" fill="none"></path></g><rect x="717.595" y="74" width="70.235" height="13.5" fill="#fff" opacity="0"></rect><text font-size="13.50" font-weight="400" x="752.6" y="85.7" fill="#286bbb"><tspan x="752.595" y="85.745">World</tspan></text></g><g class="legendMark"><g class="indicator"><path d="M721.595,448.9 H735.095 V441.65 H748.595" stroke="#999" stroke-width="0.5" fill="none"></path></g><rect x="717.595" y="434.9" width="70.37" height="13.5" fill="#fff" opacity="0"></rect><text font-size="13.50" font-weight="400" x="752.6" y="446.6" fill="#c15065"><tspan x="752.595" y="446.645">China</tspan></text></g><g class="legendMark"><g class="indicator"><path d="M721.595,449.9 H735.095 V457.15 H748.595" stroke="#999" stroke-width="0.5" fill="none"></path></g><rect x="717.595" y="450.4" width="64.43" height="13.5" fill="#fff" opacity="0"></rect><text font-size="13.50" font-weight="400" x="752.6" y="462.1" fill="#2c8465"><tspan x="752.595" y="462.145">India</tspan></text></g><g class="legendMark"><g class="indicator"><path d="M721.595,511.8 H730.595 V493.5499999999999 H748.595" stroke="#999" stroke-width="0.5" fill="none"></path></g><rect x="717.595" y="486.7999999999999" width="116.405" height="13.5" fill="#fff" opacity="0"></rect><text font-size="13.50" font-weight="400" x="752.6" y="498.5" fill="#cf0a66"><tspan x="752.595" y="498.5449999999999">United States</tspan></text></g><g class="legendMark"><g class="indicator"><path d="M721.595,515.5 H739.595 V509.0499999999999 H748.595" stroke="#999" stroke-width="0.5" fill="none"></path></g><rect x="717.595" y="502.2999999999999" width="93.86000000000001" height="13.5" fill="#fff" opacity="0"></rect><text font-size="13.50" font-weight="400" x="752.6" y="514.0" fill="#be5915"><tspan x="752.595" y="514.0449999999998">Indonesia</tspan></text></g><g class="legendMark"><g class="indicator"><path d="M721.595,517.9 H739.595 V524.55 H748.595" stroke="#999" stroke-width="0.5" fill="none"></path></g><rect x="717.595" y="517.8" width="86.975" height="13.5" fill="#fff" opacity="0"></rect><text font-size="13.50" font-weight="400" x="752.6" y="529.5" fill="#6d3e91"><tspan x="752.595" y="529.545">Pakistan</tspan></text></g></g><g class="Lines"><rect x="67" y="74" width="651" height="457" fill="rgba(255,255,255,0)" opacity="0"></rect><g><path stroke-linecap="round" stroke-linejoin="round" stroke="#ddd" d="M66.9 386.8L76.1 384.3L85.2 381.5L94.4 378.6L103.6 375.7L112.7 372.5L121.9 369.4L131.1 366.1L140.2 362.7L149.4 359.6L158.5 356.7L167.7 353.9L176.9 350.5L186 346.5L195.2 342.4L204.4 338.4L213.5 334.3L222.7 330.4L231.9 326.2L241 322L250.2 317.6L259.4 313.3L268.5 309L277.7 304.6L286.9 300.3L296 296L305.2 291.8L314.3 287.6L323.5 283.3L332.7 278.9L341.8 274.4L351 269.7L360.2 264.9L369.3 260L378.5 255.2L387.7 250.2L396.8 245.1L406 239.8L415.2 234.6L424.3 229.3L433.5 223.9L442.7 218.7L451.8 213.7L461 208.8L470.1 204L479.3 199.2L488.5 194.5L497.6 189.8L506.8 185.1L516 180.5L525.1 175.8L534.3 171.1L543.5 166.3L552.6 161.6L561.8 156.9L571 152.1L580.1 147.3L589.3 142.4L598.5 137.5L607.6 132.5L616.8 127.4L625.9 122.3L635.1 117.2L644.3 112.1L653.4 107L662.6 101.9L671.8 96.9L680.9 91.9L690.1 87L699.3 82.3L708.4 78L717.6 74" fill="none" stroke-width="1"></path></g><g><path stroke-linecap="round" stroke-linejoin="round" stroke="#ddd" d="M66.9 522.7L76.1 522.6L85.2 522.5L94.4 522.3L103.6 522.2L112.7 522L121.9 521.8L131.1 521.6L140.2 521.5L149.4 521.3L158.5 521.1L167.7 520.9L176.9 520.8L186 520.6L195.2 520.5L204.4 520.3L213.5 520.2L222.7 520.1L231.9 520L241 519.9L250.2 519.7L259.4 519.6L268.5 519.4L277.7 519.3L286.9 519.2L296 519.1L305.2 519L314.3 518.8L323.5 518.7L332.7 518.6L341.8 518.4L351 518.3L360.2 518.1L369.3 518L378.5 517.8L387.7 517.7L396.8 517.6L406 517.4L415.2 517.3L424.3 517.1L433.5 517L442.7 516.8L451.8 516.5L461 516.3L470.1 516.1L479.3 515.9L488.5 515.7L497.6 515.6L506.8 515.4L516 515.2L525.1 515L534.3 514.8L543.5 514.6L552.6 514.5L561.8 514.3L571 514.1L580.1 514L589.3 513.8L598.5 513.6L607.6 513.5L616.8 513.3L625.9 513.2L635.1 513L644.3 512.8L653.4 512.7L662.6 512.5L671.8 512.4L680.9 512.2L690.1 512.1L699.3 512L708.4 511.9L717.6 511.8" fill="none" stroke-width="1"></path></g><g><path stroke-linecap="round" stroke-linejoin="round" stroke="#ddd" d="M66.9 529.1L76.1 529.1L85.2 529.1L94.4 529L103.6 529L112.7 528.9L121.9 528.9L131.1 528.8L140.2 528.8L149.4 528.7L158.5 528.6L167.7 528.6L176.9 528.5L186 528.4L195.2 528.4L204.4 528.3L213.5 528.2L222.7 528.1L231.9 528.1L241 528L250.2 527.9L259.4 527.8L268.5 527.7L277.7 527.6L286.9 527.5L296 527.4L305.2 527.2L314.3 527.1L323.5 527L332.7 526.8L341.8 526.6L351 526.4L360.2 526.2L369.3 526L378.5 525.9L387.7 525.7L396.8 525.5L406 525.3L415.2 525.1L424.3 524.8L433.5 524.6L442.7 524.4L451.8 524.2L461 524L470.1 523.8L479.3 523.6L488.5 523.4L497.6 523.1L506.8 522.9L516 522.6L525.1 522.4L534.3 522.1L543.5 521.9L552.6 521.7L561.8 521.4L571 521.2L580.1 521L589.3 520.8L598.5 520.5L607.6 520.3L616.8 520.1L625.9 519.8L635.1 519.6L644.3 519.4L653.4 519.3L662.6 519.1L671.8 519L680.9 518.8L690.1 518.6L699.3 518.4L708.4 518.2L717.6 517.9" fill="none" stroke-width="1"></path></g><g><path stroke-linecap="round" stroke-linejoin="round" stroke="#ddd" d="M66.9 527.3L76.1 527.2L85.2 527.1L94.4 527L103.6 526.9L112.7 526.8L121.9 526.7L131.1 526.6L140.2 526.5L149.4 526.3L158.5 526.2L167.7 526L176.9 525.9L186 525.8L195.2 525.6L204.4 525.5L213.5 525.3L222.7 525.2L231.9 525L241 524.8L250.2 524.6L259.4 524.5L268.5 524.3L277.7 524.1L286.9 523.9L296 523.7L305.2 523.5L314.3 523.3L323.5 523.1L332.7 522.9L341.8 522.7L351 522.5L360.2 522.3L369.3 522.1L378.5 521.9L387.7 521.7L396.8 521.5L406 521.3L415.2 521.1L424.3 521L433.5 520.8L442.7 520.6L451.8 520.4L461 520.2L470.1 520L479.3 519.8L488.5 519.7L497.6 519.5L506.8 519.3L516 519.1L525.1 518.9L534.3 518.7L543.5 518.6L552.6 518.4L561.8 518.2L571 518.1L580.1 517.9L589.3 517.7L598.5 517.5L607.6 517.4L616.8 517.2L625.9 517L635.1 516.8L644.3 516.7L653.4 516.5L662.6 516.3L671.8 516.2L680.9 516L690.1 515.9L699.3 515.7L708.4 515.6L717.6 515.5" fill="none" stroke-width="1"></path></g><g><path stroke-linecap="round" stroke-linejoin="round" stroke="#ddd" d="M66.9 510.7L76.1 510.2L85.2 509.7L94.4 509.3L103.6 508.8L112.7 508.3L121.9 507.7L131.1 507.2L140.2 506.7L149.4 506.1L158.5 505.5L167.7 504.9L176.9 504.3L186 503.7L195.2 503L204.4 502.4L213.5 501.8L222.7 501.1L231.9 500.5L241 499.8L250.2 499.1L259.4 498.3L268.5 497.6L277.7 496.8L286.9 496L296 495.2L305.2 494.4L314.3 493.6L323.5 492.8L332.7 491.9L341.8 491L351 490.1L360.2 489.1L369.3 488.2L378.5 487.2L387.7 486.2L396.8 485.2L406 484.1L415.2 483.1L424.3 482L433.5 481L442.7 479.9L451.8 478.8L461 477.7L470.1 476.6L479.3 475.5L488.5 474.4L497.6 473.3L506.8 472.2L516 471.1L525.1 470L534.3 468.9L543.5 467.8L552.6 466.7L561.8 465.6L571 464.5L580.1 463.5L589.3 462.5L598.5 461.5L607.6 460.6L616.8 459.6L625.9 458.6L635.1 457.6L644.3 456.6L653.4 455.7L662.6 454.8L671.8 453.9L680.9 453L690.1 452.1L699.3 451.3L708.4 450.6L717.6 449.9" fill="none" stroke-width="1"></path></g><g><path stroke-linecap="round" stroke-linejoin="round" stroke="#ddd" d="M66.9 499.8L76.1 499.3L85.2 498.6L94.4 497.9L103.6 497.2L112.7 496.4L121.9 495.7L131.1 494.9L140.2 494.1L149.4 493.6L158.5 493.5L167.7 493.4L176.9 492.9L186 491.8L195.2 490.6L204.4 489.4L213.5 488.3L222.7 487.3L231.9 486.2L241 485L250.2 483.7L259.4 482.5L268.5 481.4L277.7 480.3L286.9 479.3L296 478.4L305.2 477.6L314.3 476.8L323.5 476.1L332.7 475.3L341.8 474.5L351 473.6L360.2 472.7L369.3 471.8L378.5 470.9L387.7 470L396.8 469L406 467.9L415.2 466.8L424.3 465.7L433.5 464.6L442.7 463.6L451.8 462.9L461 462.2L470.1 461.5L479.3 460.9L488.5 460.3L497.6 459.7L506.8 459.2L516 458.7L525.1 458.2L534.3 457.7L543.5 457.2L552.6 456.8L561.8 456.3L571 455.9L580.1 455.4L589.3 454.9L598.5 454.4L607.6 453.9L616.8 453.4L625.9 452.8L635.1 452.3L644.3 451.7L653.4 451.2L662.6 450.7L671.8 450.2L680.9 449.8L690.1 449.4L699.3 449.1L708.4 448.9L717.6 448.9" fill="none" stroke-width="1"></path></g><g><path fill="none" stroke-linecap="butt" stroke-linejoin="round" stroke="#fff" stroke-width="2.5" d="M66.9 386.8L76.1 384.3L85.2 381.5L94.4 378.6L103.6 375.7L112.7 372.5L121.9 369.4L131.1 366.1L140.2 362.7L149.4 359.6L158.5 356.7L167.7 353.9L176.9 350.5L186 346.5L195.2 342.4L204.4 338.4L213.5 334.3L222.7 330.4L231.9 326.2L241 322L250.2 317.6L259.4 313.3L268.5 309L277.7 304.6L286.9 300.3L296 296L305.2 291.8L314.3 287.6L323.5 283.3L332.7 278.9L341.8 274.4L351 269.7L360.2 264.9L369.3 260L378.5 255.2L387.7 250.2L396.8 245.1L406 239.8L415.2 234.6L424.3 229.3L433.5 223.9L442.7 218.7L451.8 213.7L461 208.8L470.1 204L479.3 199.2L488.5 194.5L497.6 189.8L506.8 185.1L516 180.5L525.1 175.8L534.3 171.1L543.5 166.3L552.6 161.6L561.8 156.9L571 152.1L580.1 147.3L589.3 142.4L598.5 137.5L607.6 132.5L616.8 127.4L625.9 122.3L635.1 117.2L644.3 112.1L653.4 107L662.6 101.9L671.8 96.9L680.9 91.9L690.1 87L699.3 82.3L708.4 78L717.6 74"></path><polyline points="66.90,386.80 76.10,384.30 85.20,381.50 94.40,378.60 103.60,375.70 112.70,372.50 121.90,369.40 131.10,366.10 140.20,362.70 149.40,359.60 158.50,356.70 167.70,353.90 176.90,350.50 186.00,346.50 195.20,342.40 204.40,338.40 213.50,334.30 222.70,330.40 231.90,326.20 241.00,322.00 250.20,317.60 259.40,313.30 268.50,309.00 277.70,304.60 286.90,300.30 296.00,296.00 305.20,291.80 314.30,287.60 323.50,283.30 332.70,278.90 341.80,274.40 351.00,269.70 360.20,264.90 369.30,260.00 378.50,255.20 387.70,250.20 396.80,245.10 406.00,239.80 415.20,234.60 424.30,229.30 433.50,223.90 442.70,218.70 451.80,213.70 461.00,208.80 470.10,204.00 479.30,199.20 488.50,194.50 497.60,189.80 506.80,185.10 516.00,180.50 525.10,175.80 534.30,171.10 543.50,166.30 552.60,161.60 561.80,156.90 571.00,152.10 580.10,147.30 589.30,142.40 598.50,137.50 607.60,132.50 616.80,127.40 625.90,122.30 635.10,117.20 644.30,112.10 653.40,107.00 662.60,101.90 671.80,96.90 680.90,91.90 690.10,87.00 699.30,82.30 708.40,78.00 717.60,74.00" stroke-linejoin="round" stroke-width="1.5" stroke="#286BBB" fill="none" stroke-linecap="butt"></polyline><g><circle cx="66.9" cy="386.8" r="1.8" fill="#286BBB"></circle><circle cx="76.1" cy="384.3" r="1.8" fill="#286BBB"></circle><circle cx="85.2" cy="381.5" r="1.8" fill="#286BBB"></circle><circle cx="94.4" cy="378.6" r="1.8" fill="#286BBB"></circle><circle cx="103.6" cy="375.7" r="1.8" fill="#286BBB"></circle><circle cx="112.7" cy="372.5" r="1.8" fill="#286BBB"></circle><circle cx="121.9" cy="369.4" r="1.8" fill="#286BBB"></circle><circle cx="131.1" cy="366.1" r="1.8" fill="#286BBB"></circle><circle cx="140.2" cy="362.7" r="1.8" fill="#286BBB"></circle><circle cx="149.4" cy="359.6" r="1.8" fill="#286BBB"></circle><circle cx="158.5" cy="356.7" r="1.8" fill="#286BBB"></circle><circle cx="167.7" cy="353.9" r="1.8" fill="#286BBB"></circle><circle cx="176.9" cy="350.5" r="1.8" fill="#286BBB"></circle><circle cx="186" cy="346.5" r="1.8" fill="#286BBB"></circle><circle cx="195.2" cy="342.4" r="1.8" fill="#286BBB"></circle><circle cx="204.4" cy="338.4" r="1.8" fill="#286BBB"></circle><circle cx="213.5" cy="334.3" r="1.8" fill="#286BBB"></circle><circle cx="222.7" cy="330.4" r="1.8" fill="#286BBB"></circle><circle cx="231.9" cy="326.2" r="1.8" fill="#286BBB"></circle><circle cx="241" cy="322" r="1.8" fill="#286BBB"></circle><circle cx="250.2" cy="317.6" r="1.8" fill="#286BBB"></circle><circle cx="259.4" cy="313.3" r="1.8" fill="#286BBB"></circle><circle cx="268.5" cy="309" r="1.8" fill="#286BBB"></circle><circle cx="277.7" cy="304.6" r="1.8" fill="#286BBB"></circle><circle cx="286.9" cy="300.3" r="1.8" fill="#286BBB"></circle><circle cx="296" cy="296" r="1.8" fill="#286BBB"></circle><circle cx="305.2" cy="291.8" r="1.8" fill="#286BBB"></circle><circle cx="314.3" cy="287.6" r="1.8" fill="#286BBB"></circle><circle cx="323.5" cy="283.3" r="1.8" fill="#286BBB"></circle><circle cx="332.7" cy="278.9" r="1.8" fill="#286BBB"></circle><circle cx="341.8" cy="274.4" r="1.8" fill="#286BBB"></circle><circle cx="351" cy="269.7" r="1.8" fill="#286BBB"></circle><circle cx="360.2" cy="264.9" r="1.8" fill="#286BBB"></circle><circle cx="369.3" cy="260" r="1.8" fill="#286BBB"></circle><circle cx="378.5" cy="255.2" r="1.8" fill="#286BBB"></circle><circle cx="387.7" cy="250.2" r="1.8" fill="#286BBB"></circle><circle cx="396.8" cy="245.1" r="1.8" fill="#286BBB"></circle><circle cx="406" cy="239.8" r="1.8" fill="#286BBB"></circle><circle cx="415.2" cy="234.6" r="1.8" fill="#286BBB"></circle><circle cx="424.3" cy="229.3" r="1.8" fill="#286BBB"></circle><circle cx="433.5" cy="223.9" r="1.8" fill="#286BBB"></circle><circle cx="442.7" cy="218.7" r="1.8" fill="#286BBB"></circle><circle cx="451.8" cy="213.7" r="1.8" fill="#286BBB"></circle><circle cx="461" cy="208.8" r="1.8" fill="#286BBB"></circle><circle cx="470.1" cy="204" r="1.8" fill="#286BBB"></circle><circle cx="479.3" cy="199.2" r="1.8" fill="#286BBB"></circle><circle cx="488.5" cy="194.5" r="1.8" fill="#286BBB"></circle><circle cx="497.6" cy="189.8" r="1.8" fill="#286BBB"></circle><circle cx="506.8" cy="185.1" r="1.8" fill="#286BBB"></circle><circle cx="516" cy="180.5" r="1.8" fill="#286BBB"></circle><circle cx="525.1" cy="175.8" r="1.8" fill="#286BBB"></circle><circle cx="534.3" cy="171.1" r="1.8" fill="#286BBB"></circle><circle cx="543.5" cy="166.3" r="1.8" fill="#286BBB"></circle><circle cx="552.6" cy="161.6" r="1.8" fill="#286BBB"></circle><circle cx="561.8" cy="156.9" r="1.8" fill="#286BBB"></circle><circle cx="571" cy="152.1" r="1.8" fill="#286BBB"></circle><circle cx="580.1" cy="147.3" r="1.8" fill="#286BBB"></circle><circle cx="589.3" cy="142.4" r="1.8" fill="#286BBB"></circle><circle cx="598.5" cy="137.5" r="1.8" fill="#286BBB"></circle><circle cx="607.6" cy="132.5" r="1.8" fill="#286BBB"></circle><circle cx="616.8" cy="127.4" r="1.8" fill="#286BBB"></circle><circle cx="625.9" cy="122.3" r="1.8" fill="#286BBB"></circle><circle cx="635.1" cy="117.2" r="1.8" fill="#286BBB"></circle><circle cx="644.3" cy="112.1" r="1.8" fill="#286BBB"></circle><circle cx="653.4" cy="107" r="1.8" fill="#286BBB"></circle><circle cx="662.6" cy="101.9" r="1.8" fill="#286BBB"></circle><circle cx="671.8" cy="96.9" r="1.8" fill="#286BBB"></circle><circle cx="680.9" cy="91.9" r="1.8" fill="#286BBB"></circle><circle cx="690.1" cy="87" r="1.8" fill="#286BBB"></circle><circle cx="699.3" cy="82.3" r="1.8" fill="#286BBB"></circle><circle cx="708.4" cy="78" r="1.8" fill="#286BBB"></circle><circle cx="717.6" cy="74" r="1.8" fill="#286BBB"></circle></g></g><g><path fill="none" stroke-linecap="butt" stroke-linejoin="round" stroke="#fff" stroke-width="2.5" d="M66.9 522.7L76.1 522.6L85.2 522.5L94.4 522.3L103.6 522.2L112.7 522L121.9 521.8L131.1 521.6L140.2 521.5L149.4 521.3L158.5 521.1L167.7 520.9L176.9 520.8L186 520.6L195.2 520.5L204.4 520.3L213.5 520.2L222.7 520.1L231.9 520L241 519.9L250.2 519.7L259.4 519.6L268.5 519.4L277.7 519.3L286.9 519.2L296 519.1L305.2 519L314.3 518.8L323.5 518.7L332.7 518.6L341.8 518.4L351 518.3L360.2 518.1L369.3 518L378.5 517.8L387.7 517.7L396.8 517.6L406 517.4L415.2 517.3L424.3 517.1L433.5 517L442.7 516.8L451.8 516.5L461 516.3L470.1 516.1L479.3 515.9L488.5 515.7L497.6 515.6L506.8 515.4L516 515.2L525.1 515L534.3 514.8L543.5 514.6L552.6 514.5L561.8 514.3L571 514.1L580.1 514L589.3 513.8L598.5 513.6L607.6 513.5L616.8 513.3L625.9 513.2L635.1 513L644.3 512.8L653.4 512.7L662.6 512.5L671.8 512.4L680.9 512.2L690.1 512.1L699.3 512L708.4 511.9L717.6 511.8"></path><polyline points="66.90,522.70 76.10,522.60 85.20,522.50 94.40,522.30 103.60,522.20 112.70,522.00 121.90,521.80 131.10,521.60 140.20,521.50 149.40,521.30 158.50,521.10 167.70,520.90 176.90,520.80 186.00,520.60 195.20,520.50 204.40,520.30 213.50,520.20 222.70,520.10 231.90,520.00 241.00,519.90 250.20,519.70 259.40,519.60 268.50,519.40 277.70,519.30 286.90,519.20 296.00,519.10 305.20,519.00 314.30,518.80 323.50,518.70 332.70,518.60 341.80,518.40 351.00,518.30 360.20,518.10 369.30,518.00 378.50,517.80 387.70,517.70 396.80,517.60 406.00,517.40 415.20,517.30 424.30,517.10 433.50,517.00 442.70,516.80 451.80,516.50 461.00,516.30 470.10,516.10 479.30,515.90 488.50,515.70 497.60,515.60 506.80,515.40 516.00,515.20 525.10,515.00 534.30,514.80 543.50,514.60 552.60,514.50 561.80,514.30 571.00,514.10 580.10,514.00 589.30,513.80 598.50,513.60 607.60,513.50 616.80,513.30 625.90,513.20 635.10,513.00 644.30,512.80 653.40,512.70 662.60,512.50 671.80,512.40 680.90,512.20 690.10,512.10 699.30,512.00 708.40,511.90 717.60,511.80" stroke-linejoin="round" stroke-width="1.5" stroke="#CF0A66" fill="none" stroke-linecap="butt"></polyline><g><circle cx="66.9" cy="522.7" r="1.8" fill="#CF0A66"></circle><circle cx="76.1" cy="522.6" r="1.8" fill="#CF0A66"></circle><circle cx="85.2" cy="522.5" r="1.8" fill="#CF0A66"></circle><circle cx="94.4" cy="522.3" r="1.8" fill="#CF0A66"></circle><circle cx="103.6" cy="522.2" r="1.8" fill="#CF0A66"></circle><circle cx="112.7" cy="522" r="1.8" fill="#CF0A66"></circle><circle cx="121.9" cy="521.8" r="1.8" fill="#CF0A66"></circle><circle cx="131.1" cy="521.6" r="1.8" fill="#CF0A66"></circle><circle cx="140.2" cy="521.5" r="1.8" fill="#CF0A66"></circle><circle cx="149.4" cy="521.3" r="1.8" fill="#CF0A66"></circle><circle cx="158.5" cy="521.1" r="1.8" fill="#CF0A66"></circle><circle cx="167.7" cy="520.9" r="1.8" fill="#CF0A66"></circle><circle cx="176.9" cy="520.8" r="1.8" fill="#CF0A66"></circle><circle cx="186" cy="520.6" r="1.8" fill="#CF0A66"></circle><circle cx="195.2" cy="520.5" r="1.8" fill="#CF0A66"></circle><circle cx="204.4" cy="520.3" r="1.8" fill="#CF0A66"></circle><circle cx="213.5" cy="520.2" r="1.8" fill="#CF0A66"></circle><circle cx="222.7" cy="520.1" r="1.8" fill="#CF0A66"></circle><circle cx="231.9" cy="520" r="1.8" fill="#CF0A66"></circle><circle cx="241" cy="519.9" r="1.8" fill="#CF0A66"></circle><circle cx="250.2" cy="519.7" r="1.8" fill="#CF0A66"></circle><circle cx="259.4" cy="519.6" r="1.8" fill="#CF0A66"></circle><circle cx="268.5" cy="519.4" r="1.8" fill="#CF0A66"></circle><circle cx="277.7" cy="519.3" r="1.8" fill="#CF0A66"></circle><circle cx="286.9" cy="519.2" r="1.8" fill="#CF0A66"></circle><circle cx="296" cy="519.1" r="1.8" fill="#CF0A66"></circle><circle cx="305.2" cy="519" r="1.8" fill="#CF0A66"></circle><circle cx="314.3" cy="518.8" r="1.8" fill="#CF0A66"></circle><circle cx="323.5" cy="518.7" r="1.8" fill="#CF0A66"></circle><circle cx="332.7" cy="518.6" r="1.8" fill="#CF0A66"></circle><circle cx="341.8" cy="518.4" r="1.8" fill="#CF0A66"></circle><circle cx="351" cy="518.3" r="1.8" fill="#CF0A66"></circle><circle cx="360.2" cy="518.1" r="1.8" fill="#CF0A66"></circle><circle cx="369.3" cy="518" r="1.8" fill="#CF0A66"></circle><circle cx="378.5" cy="517.8" r="1.8" fill="#CF0A66"></circle><circle cx="387.7" cy="517.7" r="1.8" fill="#CF0A66"></circle><circle cx="396.8" cy="517.6" r="1.8" fill="#CF0A66"></circle><circle cx="406" cy="517.4" r="1.8" fill="#CF0A66"></circle><circle cx="415.2" cy="517.3" r="1.8" fill="#CF0A66"></circle><circle cx="424.3" cy="517.1" r="1.8" fill="#CF0A66"></circle><circle cx="433.5" cy="517" r="1.8" fill="#CF0A66"></circle><circle cx="442.7" cy="516.8" r="1.8" fill="#CF0A66"></circle><circle cx="451.8" cy="516.5" r="1.8" fill="#CF0A66"></circle><circle cx="461" cy="516.3" r="1.8" fill="#CF0A66"></circle><circle cx="470.1" cy="516.1" r="1.8" fill="#CF0A66"></circle><circle cx="479.3" cy="515.9" r="1.8" fill="#CF0A66"></circle><circle cx="488.5" cy="515.7" r="1.8" fill="#CF0A66"></circle><circle cx="497.6" cy="515.6" r="1.8" fill="#CF0A66"></circle><circle cx="506.8" cy="515.4" r="1.8" fill="#CF0A66"></circle><circle cx="516" cy="515.2" r="1.8" fill="#CF0A66"></circle><circle cx="525.1" cy="515" r="1.8" fill="#CF0A66"></circle><circle cx="534.3" cy="514.8" r="1.8" fill="#CF0A66"></circle><circle cx="543.5" cy="514.6" r="1.8" fill="#CF0A66"></circle><circle cx="552.6" cy="514.5" r="1.8" fill="#CF0A66"></circle><circle cx="561.8" cy="514.3" r="1.8" fill="#CF0A66"></circle><circle cx="571" cy="514.1" r="1.8" fill="#CF0A66"></circle><circle cx="580.1" cy="514" r="1.8" fill="#CF0A66"></circle><circle cx="589.3" cy="513.8" r="1.8" fill="#CF0A66"></circle><circle cx="598.5" cy="513.6" r="1.8" fill="#CF0A66"></circle><circle cx="607.6" cy="513.5" r="1.8" fill="#CF0A66"></circle><circle cx="616.8" cy="513.3" r="1.8" fill="#CF0A66"></circle><circle cx="625.9" cy="513.2" r="1.8" fill="#CF0A66"></circle><circle cx="635.1" cy="513" r="1.8" fill="#CF0A66"></circle><circle cx="644.3" cy="512.8" r="1.8" fill="#CF0A66"></circle><circle cx="653.4" cy="512.7" r="1.8" fill="#CF0A66"></circle><circle cx="662.6" cy="512.5" r="1.8" fill="#CF0A66"></circle><circle cx="671.8" cy="512.4" r="1.8" fill="#CF0A66"></circle><circle cx="680.9" cy="512.2" r="1.8" fill="#CF0A66"></circle><circle cx="690.1" cy="512.1" r="1.8" fill="#CF0A66"></circle><circle cx="699.3" cy="512" r="1.8" fill="#CF0A66"></circle><circle cx="708.4" cy="511.9" r="1.8" fill="#CF0A66"></circle><circle cx="717.6" cy="511.8" r="1.8" fill="#CF0A66"></circle></g></g><g><path fill="none" stroke-linecap="butt" stroke-linejoin="round" stroke="#fff" stroke-width="2.5" d="M66.9 529.1L76.1 529.1L85.2 529.1L94.4 529L103.6 529L112.7 528.9L121.9 528.9L131.1 528.8L140.2 528.8L149.4 528.7L158.5 528.6L167.7 528.6L176.9 528.5L186 528.4L195.2 528.4L204.4 528.3L213.5 528.2L222.7 528.1L231.9 528.1L241 528L250.2 527.9L259.4 527.8L268.5 527.7L277.7 527.6L286.9 527.5L296 527.4L305.2 527.2L314.3 527.1L323.5 527L332.7 526.8L341.8 526.6L351 526.4L360.2 526.2L369.3 526L378.5 525.9L387.7 525.7L396.8 525.5L406 525.3L415.2 525.1L424.3 524.8L433.5 524.6L442.7 524.4L451.8 524.2L461 524L470.1 523.8L479.3 523.6L488.5 523.4L497.6 523.1L506.8 522.9L516 522.6L525.1 522.4L534.3 522.1L543.5 521.9L552.6 521.7L561.8 521.4L571 521.2L580.1 521L589.3 520.8L598.5 520.5L607.6 520.3L616.8 520.1L625.9 519.8L635.1 519.6L644.3 519.4L653.4 519.3L662.6 519.1L671.8 519L680.9 518.8L690.1 518.6L699.3 518.4L708.4 518.2L717.6 517.9"></path><polyline points="66.90,529.10 76.10,529.10 85.20,529.10 94.40,529.00 103.60,529.00 112.70,528.90 121.90,528.90 131.10,528.80 140.20,528.80 149.40,528.70 158.50,528.60 167.70,528.60 176.90,528.50 186.00,528.40 195.20,528.40 204.40,528.30 213.50,528.20 222.70,528.10 231.90,528.10 241.00,528.00 250.20,527.90 259.40,527.80 268.50,527.70 277.70,527.60 286.90,527.50 296.00,527.40 305.20,527.20 314.30,527.10 323.50,527.00 332.70,526.80 341.80,526.60 351.00,526.40 360.20,526.20 369.30,526.00 378.50,525.90 387.70,525.70 396.80,525.50 406.00,525.30 415.20,525.10 424.30,524.80 433.50,524.60 442.70,524.40 451.80,524.20 461.00,524.00 470.10,523.80 479.30,523.60 488.50,523.40 497.60,523.10 506.80,522.90 516.00,522.60 525.10,522.40 534.30,522.10 543.50,521.90 552.60,521.70 561.80,521.40 571.00,521.20 580.10,521.00 589.30,520.80 598.50,520.50 607.60,520.30 616.80,520.10 625.90,519.80 635.10,519.60 644.30,519.40 653.40,519.30 662.60,519.10 671.80,519.00 680.90,518.80 690.10,518.60 699.30,518.40 708.40,518.20 717.60,517.90" stroke-linejoin="round" stroke-width="1.5" stroke="#6D3E91" fill="none" stroke-linecap="butt"></polyline><g><circle cx="66.9" cy="529.1" r="1.8" fill="#6D3E91"></circle><circle cx="76.1" cy="529.1" r="1.8" fill="#6D3E91"></circle><circle cx="85.2" cy="529.1" r="1.8" fill="#6D3E91"></circle><circle cx="94.4" cy="529" r="1.8" fill="#6D3E91"></circle><circle cx="103.6" cy="529" r="1.8" fill="#6D3E91"></circle><circle cx="112.7" cy="528.9" r="1.8" fill="#6D3E91"></circle><circle cx="121.9" cy="528.9" r="1.8" fill="#6D3E91"></circle><circle cx="131.1" cy="528.8" r="1.8" fill="#6D3E91"></circle><circle cx="140.2" cy="528.8" r="1.8" fill="#6D3E91"></circle><circle cx="149.4" cy="528.7" r="1.8" fill="#6D3E91"></circle><circle cx="158.5" cy="528.6" r="1.8" fill="#6D3E91"></circle><circle cx="167.7" cy="528.6" r="1.8" fill="#6D3E91"></circle><circle cx="176.9" cy="528.5" r="1.8" fill="#6D3E91"></circle><circle cx="186" cy="528.4" r="1.8" fill="#6D3E91"></circle><circle cx="195.2" cy="528.4" r="1.8" fill="#6D3E91"></circle><circle cx="204.4" cy="528.3" r="1.8" fill="#6D3E91"></circle><circle cx="213.5" cy="528.2" r="1.8" fill="#6D3E91"></circle><circle cx="222.7" cy="528.1" r="1.8" fill="#6D3E91"></circle><circle cx="231.9" cy="528.1" r="1.8" fill="#6D3E91"></circle><circle cx="241" cy="528" r="1.8" fill="#6D3E91"></circle><circle cx="250.2" cy="527.9" r="1.8" fill="#6D3E91"></circle><circle cx="259.4" cy="527.8" r="1.8" fill="#6D3E91"></circle><circle cx="268.5" cy="527.7" r="1.8" fill="#6D3E91"></circle><circle cx="277.7" cy="527.6" r="1.8" fill="#6D3E91"></circle><circle cx="286.9" cy="527.5" r="1.8" fill="#6D3E91"></circle><circle cx="296" cy="527.4" r="1.8" fill="#6D3E91"></circle><circle cx="305.2" cy="527.2" r="1.8" fill="#6D3E91"></circle><circle cx="314.3" cy="527.1" r="1.8" fill="#6D3E91"></circle><circle cx="323.5" cy="527" r="1.8" fill="#6D3E91"></circle><circle cx="332.7" cy="526.8" r="1.8" fill="#6D3E91"></circle><circle cx="341.8" cy="526.6" r="1.8" fill="#6D3E91"></circle><circle cx="351" cy="526.4" r="1.8" fill="#6D3E91"></circle><circle cx="360.2" cy="526.2" r="1.8" fill="#6D3E91"></circle><circle cx="369.3" cy="526" r="1.8" fill="#6D3E91"></circle><circle cx="378.5" cy="525.9" r="1.8" fill="#6D3E91"></circle><circle cx="387.7" cy="525.7" r="1.8" fill="#6D3E91"></circle><circle cx="396.8" cy="525.5" r="1.8" fill="#6D3E91"></circle><circle cx="406" cy="525.3" r="1.8" fill="#6D3E91"></circle><circle cx="415.2" cy="525.1" r="1.8" fill="#6D3E91"></circle><circle cx="424.3" cy="524.8" r="1.8" fill="#6D3E91"></circle><circle cx="433.5" cy="524.6" r="1.8" fill="#6D3E91"></circle><circle cx="442.7" cy="524.4" r="1.8" fill="#6D3E91"></circle><circle cx="451.8" cy="524.2" r="1.8" fill="#6D3E91"></circle><circle cx="461" cy="524" r="1.8" fill="#6D3E91"></circle><circle cx="470.1" cy="523.8" r="1.8" fill="#6D3E91"></circle><circle cx="479.3" cy="523.6" r="1.8" fill="#6D3E91"></circle><circle cx="488.5" cy="523.4" r="1.8" fill="#6D3E91"></circle><circle cx="497.6" cy="523.1" r="1.8" fill="#6D3E91"></circle><circle cx="506.8" cy="522.9" r="1.8" fill="#6D3E91"></circle><circle cx="516" cy="522.6" r="1.8" fill="#6D3E91"></circle><circle cx="525.1" cy="522.4" r="1.8" fill="#6D3E91"></circle><circle cx="534.3" cy="522.1" r="1.8" fill="#6D3E91"></circle><circle cx="543.5" cy="521.9" r="1.8" fill="#6D3E91"></circle><circle cx="552.6" cy="521.7" r="1.8" fill="#6D3E91"></circle><circle cx="561.8" cy="521.4" r="1.8" fill="#6D3E91"></circle><circle cx="571" cy="521.2" r="1.8" fill="#6D3E91"></circle><circle cx="580.1" cy="521" r="1.8" fill="#6D3E91"></circle><circle cx="589.3" cy="520.8" r="1.8" fill="#6D3E91"></circle><circle cx="598.5" cy="520.5" r="1.8" fill="#6D3E91"></circle><circle cx="607.6" cy="520.3" r="1.8" fill="#6D3E91"></circle><circle cx="616.8" cy="520.1" r="1.8" fill="#6D3E91"></circle><circle cx="625.9" cy="519.8" r="1.8" fill="#6D3E91"></circle><circle cx="635.1" cy="519.6" r="1.8" fill="#6D3E91"></circle><circle cx="644.3" cy="519.4" r="1.8" fill="#6D3E91"></circle><circle cx="653.4" cy="519.3" r="1.8" fill="#6D3E91"></circle><circle cx="662.6" cy="519.1" r="1.8" fill="#6D3E91"></circle><circle cx="671.8" cy="519" r="1.8" fill="#6D3E91"></circle><circle cx="680.9" cy="518.8" r="1.8" fill="#6D3E91"></circle><circle cx="690.1" cy="518.6" r="1.8" fill="#6D3E91"></circle><circle cx="699.3" cy="518.4" r="1.8" fill="#6D3E91"></circle><circle cx="708.4" cy="518.2" r="1.8" fill="#6D3E91"></circle><circle cx="717.6" cy="517.9" r="1.8" fill="#6D3E91"></circle></g></g><g><path fill="none" stroke-linecap="butt" stroke-linejoin="round" stroke="#fff" stroke-width="2.5" d="M66.9 527.3L76.1 527.2L85.2 527.1L94.4 527L103.6 526.9L112.7 526.8L121.9 526.7L131.1 526.6L140.2 526.5L149.4 526.3L158.5 526.2L167.7 526L176.9 525.9L186 525.8L195.2 525.6L204.4 525.5L213.5 525.3L222.7 525.2L231.9 525L241 524.8L250.2 524.6L259.4 524.5L268.5 524.3L277.7 524.1L286.9 523.9L296 523.7L305.2 523.5L314.3 523.3L323.5 523.1L332.7 522.9L341.8 522.7L351 522.5L360.2 522.3L369.3 522.1L378.5 521.9L387.7 521.7L396.8 521.5L406 521.3L415.2 521.1L424.3 521L433.5 520.8L442.7 520.6L451.8 520.4L461 520.2L470.1 520L479.3 519.8L488.5 519.7L497.6 519.5L506.8 519.3L516 519.1L525.1 518.9L534.3 518.7L543.5 518.6L552.6 518.4L561.8 518.2L571 518.1L580.1 517.9L589.3 517.7L598.5 517.5L607.6 517.4L616.8 517.2L625.9 517L635.1 516.8L644.3 516.7L653.4 516.5L662.6 516.3L671.8 516.2L680.9 516L690.1 515.9L699.3 515.7L708.4 515.6L717.6 515.5"></path><polyline points="66.90,527.30 76.10,527.20 85.20,527.10 94.40,527.00 103.60,526.90 112.70,526.80 121.90,526.70 131.10,526.60 140.20,526.50 149.40,526.30 158.50,526.20 167.70,526.00 176.90,525.90 186.00,525.80 195.20,525.60 204.40,525.50 213.50,525.30 222.70,525.20 231.90,525.00 241.00,524.80 250.20,524.60 259.40,524.50 268.50,524.30 277.70,524.10 286.90,523.90 296.00,523.70 305.20,523.50 314.30,523.30 323.50,523.10 332.70,522.90 341.80,522.70 351.00,522.50 360.20,522.30 369.30,522.10 378.50,521.90 387.70,521.70 396.80,521.50 406.00,521.30 415.20,521.10 424.30,521.00 433.50,520.80 442.70,520.60 451.80,520.40 461.00,520.20 470.10,520.00 479.30,519.80 488.50,519.70 497.60,519.50 506.80,519.30 516.00,519.10 525.10,518.90 534.30,518.70 543.50,518.60 552.60,518.40 561.80,518.20 571.00,518.10 580.10,517.90 589.30,517.70 598.50,517.50 607.60,517.40 616.80,517.20 625.90,517.00 635.10,516.80 644.30,516.70 653.40,516.50 662.60,516.30 671.80,516.20 680.90,516.00 690.10,515.90 699.30,515.70 708.40,515.60 717.60,515.50" stroke-linejoin="round" stroke-width="1.5" stroke="#BE5915" fill="none" stroke-linecap="butt"></polyline><g><circle cx="66.9" cy="527.3" r="1.8" fill="#BE5915"></circle><circle cx="76.1" cy="527.2" r="1.8" fill="#BE5915"></circle><circle cx="85.2" cy="527.1" r="1.8" fill="#BE5915"></circle><circle cx="94.4" cy="527" r="1.8" fill="#BE5915"></circle><circle cx="103.6" cy="526.9" r="1.8" fill="#BE5915"></circle><circle cx="112.7" cy="526.8" r="1.8" fill="#BE5915"></circle><circle cx="121.9" cy="526.7" r="1.8" fill="#BE5915"></circle><circle cx="131.1" cy="526.6" r="1.8" fill="#BE5915"></circle><circle cx="140.2" cy="526.5" r="1.8" fill="#BE5915"></circle><circle cx="149.4" cy="526.3" r="1.8" fill="#BE5915"></circle><circle cx="158.5" cy="526.2" r="1.8" fill="#BE5915"></circle><circle cx="167.7" cy="526" r="1.8" fill="#BE5915"></circle><circle cx="176.9" cy="525.9" r="1.8" fill="#BE5915"></circle><circle cx="186" cy="525.8" r="1.8" fill="#BE5915"></circle><circle cx="195.2" cy="525.6" r="1.8" fill="#BE5915"></circle><circle cx="204.4" cy="525.5" r="1.8" fill="#BE5915"></circle><circle cx="213.5" cy="525.3" r="1.8" fill="#BE5915"></circle><circle cx="222.7" cy="525.2" r="1.8" fill="#BE5915"></circle><circle cx="231.9" cy="525" r="1.8" fill="#BE5915"></circle><circle cx="241" cy="524.8" r="1.8" fill="#BE5915"></circle><circle cx="250.2" cy="524.6" r="1.8" fill="#BE5915"></circle><circle cx="259.4" cy="524.5" r="1.8" fill="#BE5915"></circle><circle cx="268.5" cy="524.3" r="1.8" fill="#BE5915"></circle><circle cx="277.7" cy="524.1" r="1.8" fill="#BE5915"></circle><circle cx="286.9" cy="523.9" r="1.8" fill="#BE5915"></circle><circle cx="296" cy="523.7" r="1.8" fill="#BE5915"></circle><circle cx="305.2" cy="523.5" r="1.8" fill="#BE5915"></circle><circle cx="314.3" cy="523.3" r="1.8" fill="#BE5915"></circle><circle cx="323.5" cy="523.1" r="1.8" fill="#BE5915"></circle><circle cx="332.7" cy="522.9" r="1.8" fill="#BE5915"></circle><circle cx="341.8" cy="522.7" r="1.8" fill="#BE5915"></circle><circle cx="351" cy="522.5" r="1.8" fill="#BE5915"></circle><circle cx="360.2" cy="522.3" r="1.8" fill="#BE5915"></circle><circle cx="369.3" cy="522.1" r="1.8" fill="#BE5915"></circle><circle cx="378.5" cy="521.9" r="1.8" fill="#BE5915"></circle><circle cx="387.7" cy="521.7" r="1.8" fill="#BE5915"></circle><circle cx="396.8" cy="521.5" r="1.8" fill="#BE5915"></circle><circle cx="406" cy="521.3" r="1.8" fill="#BE5915"></circle><circle cx="415.2" cy="521.1" r="1.8" fill="#BE5915"></circle><circle cx="424.3" cy="521" r="1.8" fill="#BE5915"></circle><circle cx="433.5" cy="520.8" r="1.8" fill="#BE5915"></circle><circle cx="442.7" cy="520.6" r="1.8" fill="#BE5915"></circle><circle cx="451.8" cy="520.4" r="1.8" fill="#BE5915"></circle><circle cx="461" cy="520.2" r="1.8" fill="#BE5915"></circle><circle cx="470.1" cy="520" r="1.8" fill="#BE5915"></circle><circle cx="479.3" cy="519.8" r="1.8" fill="#BE5915"></circle><circle cx="488.5" cy="519.7" r="1.8" fill="#BE5915"></circle><circle cx="497.6" cy="519.5" r="1.8" fill="#BE5915"></circle><circle cx="506.8" cy="519.3" r="1.8" fill="#BE5915"></circle><circle cx="516" cy="519.1" r="1.8" fill="#BE5915"></circle><circle cx="525.1" cy="518.9" r="1.8" fill="#BE5915"></circle><circle cx="534.3" cy="518.7" r="1.8" fill="#BE5915"></circle><circle cx="543.5" cy="518.6" r="1.8" fill="#BE5915"></circle><circle cx="552.6" cy="518.4" r="1.8" fill="#BE5915"></circle><circle cx="561.8" cy="518.2" r="1.8" fill="#BE5915"></circle><circle cx="571" cy="518.1" r="1.8" fill="#BE5915"></circle><circle cx="580.1" cy="517.9" r="1.8" fill="#BE5915"></circle><circle cx="589.3" cy="517.7" r="1.8" fill="#BE5915"></circle><circle cx="598.5" cy="517.5" r="1.8" fill="#BE5915"></circle><circle cx="607.6" cy="517.4" r="1.8" fill="#BE5915"></circle><circle cx="616.8" cy="517.2" r="1.8" fill="#BE5915"></circle><circle cx="625.9" cy="517" r="1.8" fill="#BE5915"></circle><circle cx="635.1" cy="516.8" r="1.8" fill="#BE5915"></circle><circle cx="644.3" cy="516.7" r="1.8" fill="#BE5915"></circle><circle cx="653.4" cy="516.5" r="1.8" fill="#BE5915"></circle><circle cx="662.6" cy="516.3" r="1.8" fill="#BE5915"></circle><circle cx="671.8" cy="516.2" r="1.8" fill="#BE5915"></circle><circle cx="680.9" cy="516" r="1.8" fill="#BE5915"></circle><circle cx="690.1" cy="515.9" r="1.8" fill="#BE5915"></circle><circle cx="699.3" cy="515.7" r="1.8" fill="#BE5915"></circle><circle cx="708.4" cy="515.6" r="1.8" fill="#BE5915"></circle><circle cx="717.6" cy="515.5" r="1.8" fill="#BE5915"></circle></g></g><g><path fill="none" stroke-linecap="butt" stroke-linejoin="round" stroke="#fff" stroke-width="2.5" d="M66.9 510.7L76.1 510.2L85.2 509.7L94.4 509.3L103.6 508.8L112.7 508.3L121.9 507.7L131.1 507.2L140.2 506.7L149.4 506.1L158.5 505.5L167.7 504.9L176.9 504.3L186 503.7L195.2 503L204.4 502.4L213.5 501.8L222.7 501.1L231.9 500.5L241 499.8L250.2 499.1L259.4 498.3L268.5 497.6L277.7 496.8L286.9 496L296 495.2L305.2 494.4L314.3 493.6L323.5 492.8L332.7 491.9L341.8 491L351 490.1L360.2 489.1L369.3 488.2L378.5 487.2L387.7 486.2L396.8 485.2L406 484.1L415.2 483.1L424.3 482L433.5 481L442.7 479.9L451.8 478.8L461 477.7L470.1 476.6L479.3 475.5L488.5 474.4L497.6 473.3L506.8 472.2L516 471.1L525.1 470L534.3 468.9L543.5 467.8L552.6 466.7L561.8 465.6L571 464.5L580.1 463.5L589.3 462.5L598.5 461.5L607.6 460.6L616.8 459.6L625.9 458.6L635.1 457.6L644.3 456.6L653.4 455.7L662.6 454.8L671.8 453.9L680.9 453L690.1 452.1L699.3 451.3L708.4 450.6L717.6 449.9"></path><polyline points="66.90,510.70 76.10,510.20 85.20,509.70 94.40,509.30 103.60,508.80 112.70,508.30 121.90,507.70 131.10,507.20 140.20,506.70 149.40,506.10 158.50,505.50 167.70,504.90 176.90,504.30 186.00,503.70 195.20,503.00 204.40,502.40 213.50,501.80 222.70,501.10 231.90,500.50 241.00,499.80 250.20,499.10 259.40,498.30 268.50,497.60 277.70,496.80 286.90,496.00 296.00,495.20 305.20,494.40 314.30,493.60 323.50,492.80 332.70,491.90 341.80,491.00 351.00,490.10 360.20,489.10 369.30,488.20 378.50,487.20 387.70,486.20 396.80,485.20 406.00,484.10 415.20,483.10 424.30,482.00 433.50,481.00 442.70,479.90 451.80,478.80 461.00,477.70 470.10,476.60 479.30,475.50 488.50,474.40 497.60,473.30 506.80,472.20 516.00,471.10 525.10,470.00 534.30,468.90 543.50,467.80 552.60,466.70 561.80,465.60 571.00,464.50 580.10,463.50 589.30,462.50 598.50,461.50 607.60,460.60 616.80,459.60 625.90,458.60 635.10,457.60 644.30,456.60 653.40,455.70 662.60,454.80 671.80,453.90 680.90,453.00 690.10,452.10 699.30,451.30 708.40,450.60 717.60,449.90" stroke-linejoin="round" stroke-width="1.5" stroke="#2C8465" fill="none" stroke-linecap="butt"></polyline><g><circle cx="66.9" cy="510.7" r="1.8" fill="#2C8465"></circle><circle cx="76.1" cy="510.2" r="1.8" fill="#2C8465"></circle><circle cx="85.2" cy="509.7" r="1.8" fill="#2C8465"></circle><circle cx="94.4" cy="509.3" r="1.8" fill="#2C8465"></circle><circle cx="103.6" cy="508.8" r="1.8" fill="#2C8465"></circle><circle cx="112.7" cy="508.3" r="1.8" fill="#2C8465"></circle><circle cx="121.9" cy="507.7" r="1.8" fill="#2C8465"></circle><circle cx="131.1" cy="507.2" r="1.8" fill="#2C8465"></circle><circle cx="140.2" cy="506.7" r="1.8" fill="#2C8465"></circle><circle cx="149.4" cy="506.1" r="1.8" fill="#2C8465"></circle><circle cx="158.5" cy="505.5" r="1.8" fill="#2C8465"></circle><circle cx="167.7" cy="504.9" r="1.8" fill="#2C8465"></circle><circle cx="176.9" cy="504.3" r="1.8" fill="#2C8465"></circle><circle cx="186" cy="503.7" r="1.8" fill="#2C8465"></circle><circle cx="195.2" cy="503" r="1.8" fill="#2C8465"></circle><circle cx="204.4" cy="502.4" r="1.8" fill="#2C8465"></circle><circle cx="213.5" cy="501.8" r="1.8" fill="#2C8465"></circle><circle cx="222.7" cy="501.1" r="1.8" fill="#2C8465"></circle><circle cx="231.9" cy="500.5" r="1.8" fill="#2C8465"></circle><circle cx="241" cy="499.8" r="1.8" fill="#2C8465"></circle><circle cx="250.2" cy="499.1" r="1.8" fill="#2C8465"></circle><circle cx="259.4" cy="498.3" r="1.8" fill="#2C8465"></circle><circle cx="268.5" cy="497.6" r="1.8" fill="#2C8465"></circle><circle cx="277.7" cy="496.8" r="1.8" fill="#2C8465"></circle><circle cx="286.9" cy="496" r="1.8" fill="#2C8465"></circle><circle cx="296" cy="495.2" r="1.8" fill="#2C8465"></circle><circle cx="305.2" cy="494.4" r="1.8" fill="#2C8465"></circle><circle cx="314.3" cy="493.6" r="1.8" fill="#2C8465"></circle><circle cx="323.5" cy="492.8" r="1.8" fill="#2C8465"></circle><circle cx="332.7" cy="491.9" r="1.8" fill="#2C8465"></circle><circle cx="341.8" cy="491" r="1.8" fill="#2C8465"></circle><circle cx="351" cy="490.1" r="1.8" fill="#2C8465"></circle><circle cx="360.2" cy="489.1" r="1.8" fill="#2C8465"></circle><circle cx="369.3" cy="488.2" r="1.8" fill="#2C8465"></circle><circle cx="378.5" cy="487.2" r="1.8" fill="#2C8465"></circle><circle cx="387.7" cy="486.2" r="1.8" fill="#2C8465"></circle><circle cx="396.8" cy="485.2" r="1.8" fill="#2C8465"></circle><circle cx="406" cy="484.1" r="1.8" fill="#2C8465"></circle><circle cx="415.2" cy="483.1" r="1.8" fill="#2C8465"></circle><circle cx="424.3" cy="482" r="1.8" fill="#2C8465"></circle><circle cx="433.5" cy="481" r="1.8" fill="#2C8465"></circle><circle cx="442.7" cy="479.9" r="1.8" fill="#2C8465"></circle><circle cx="451.8" cy="478.8" r="1.8" fill="#2C8465"></circle><circle cx="461" cy="477.7" r="1.8" fill="#2C8465"></circle><circle cx="470.1" cy="476.6" r="1.8" fill="#2C8465"></circle><circle cx="479.3" cy="475.5" r="1.8" fill="#2C8465"></circle><circle cx="488.5" cy="474.4" r="1.8" fill="#2C8465"></circle><circle cx="497.6" cy="473.3" r="1.8" fill="#2C8465"></circle><circle cx="506.8" cy="472.2" r="1.8" fill="#2C8465"></circle><circle cx="516" cy="471.1" r="1.8" fill="#2C8465"></circle><circle cx="525.1" cy="470" r="1.8" fill="#2C8465"></circle><circle cx="534.3" cy="468.9" r="1.8" fill="#2C8465"></circle><circle cx="543.5" cy="467.8" r="1.8" fill="#2C8465"></circle><circle cx="552.6" cy="466.7" r="1.8" fill="#2C8465"></circle><circle cx="561.8" cy="465.6" r="1.8" fill="#2C8465"></circle><circle cx="571" cy="464.5" r="1.8" fill="#2C8465"></circle><circle cx="580.1" cy="463.5" r="1.8" fill="#2C8465"></circle><circle cx="589.3" cy="462.5" r="1.8" fill="#2C8465"></circle><circle cx="598.5" cy="461.5" r="1.8" fill="#2C8465"></circle><circle cx="607.6" cy="460.6" r="1.8" fill="#2C8465"></circle><circle cx="616.8" cy="459.6" r="1.8" fill="#2C8465"></circle><circle cx="625.9" cy="458.6" r="1.8" fill="#2C8465"></circle><circle cx="635.1" cy="457.6" r="1.8" fill="#2C8465"></circle><circle cx="644.3" cy="456.6" r="1.8" fill="#2C8465"></circle><circle cx="653.4" cy="455.7" r="1.8" fill="#2C8465"></circle><circle cx="662.6" cy="454.8" r="1.8" fill="#2C8465"></circle><circle cx="671.8" cy="453.9" r="1.8" fill="#2C8465"></circle><circle cx="680.9" cy="453" r="1.8" fill="#2C8465"></circle><circle cx="690.1" cy="452.1" r="1.8" fill="#2C8465"></circle><circle cx="699.3" cy="451.3" r="1.8" fill="#2C8465"></circle><circle cx="708.4" cy="450.6" r="1.8" fill="#2C8465"></circle><circle cx="717.6" cy="449.9" r="1.8" fill="#2C8465"></circle></g></g><g><path fill="none" stroke-linecap="butt" stroke-linejoin="round" stroke="#fff" stroke-width="2.5" d="M66.9 499.8L76.1 499.3L85.2 498.6L94.4 497.9L103.6 497.2L112.7 496.4L121.9 495.7L131.1 494.9L140.2 494.1L149.4 493.6L158.5 493.5L167.7 493.4L176.9 492.9L186 491.8L195.2 490.6L204.4 489.4L213.5 488.3L222.7 487.3L231.9 486.2L241 485L250.2 483.7L259.4 482.5L268.5 481.4L277.7 480.3L286.9 479.3L296 478.4L305.2 477.6L314.3 476.8L323.5 476.1L332.7 475.3L341.8 474.5L351 473.6L360.2 472.7L369.3 471.8L378.5 470.9L387.7 470L396.8 469L406 467.9L415.2 466.8L424.3 465.7L433.5 464.6L442.7 463.6L451.8 462.9L461 462.2L470.1 461.5L479.3 460.9L488.5 460.3L497.6 459.7L506.8 459.2L516 458.7L525.1 458.2L534.3 457.7L543.5 457.2L552.6 456.8L561.8 456.3L571 455.9L580.1 455.4L589.3 454.9L598.5 454.4L607.6 453.9L616.8 453.4L625.9 452.8L635.1 452.3L644.3 451.7L653.4 451.2L662.6 450.7L671.8 450.2L680.9 449.8L690.1 449.4L699.3 449.1L708.4 448.9L717.6 448.9"></path><polyline points="66.90,499.80 76.10,499.30 85.20,498.60 94.40,497.90 103.60,497.20 112.70,496.40 121.90,495.70 131.10,494.90 140.20,494.10 149.40,493.60 158.50,493.50 167.70,493.40 176.90,492.90 186.00,491.80 195.20,490.60 204.40,489.40 213.50,488.30 222.70,487.30 231.90,486.20 241.00,485.00 250.20,483.70 259.40,482.50 268.50,481.40 277.70,480.30 286.90,479.30 296.00,478.40 305.20,477.60 314.30,476.80 323.50,476.10 332.70,475.30 341.80,474.50 351.00,473.60 360.20,472.70 369.30,471.80 378.50,470.90 387.70,470.00 396.80,469.00 406.00,467.90 415.20,466.80 424.30,465.70 433.50,464.60 442.70,463.60 451.80,462.90 461.00,462.20 470.10,461.50 479.30,460.90 488.50,460.30 497.60,459.70 506.80,459.20 516.00,458.70 525.10,458.20 534.30,457.70 543.50,457.20 552.60,456.80 561.80,456.30 571.00,455.90 580.10,455.40 589.30,454.90 598.50,454.40 607.60,453.90 616.80,453.40 625.90,452.80 635.10,452.30 644.30,451.70 653.40,451.20 662.60,450.70 671.80,450.20 680.90,449.80 690.10,449.40 699.30,449.10 708.40,448.90 717.60,448.90" stroke-linejoin="round" stroke-width="1.5" stroke="#C15065" fill="none" stroke-linecap="butt"></polyline><g><circle cx="66.9" cy="499.8" r="1.8" fill="#C15065"></circle><circle cx="76.1" cy="499.3" r="1.8" fill="#C15065"></circle><circle cx="85.2" cy="498.6" r="1.8" fill="#C15065"></circle><circle cx="94.4" cy="497.9" r="1.8" fill="#C15065"></circle><circle cx="103.6" cy="497.2" r="1.8" fill="#C15065"></circle><circle cx="112.7" cy="496.4" r="1.8" fill="#C15065"></circle><circle cx="121.9" cy="495.7" r="1.8" fill="#C15065"></circle><circle cx="131.1" cy="494.9" r="1.8" fill="#C15065"></circle><circle cx="140.2" cy="494.1" r="1.8" fill="#C15065"></circle><circle cx="149.4" cy="493.6" r="1.8" fill="#C15065"></circle><circle cx="158.5" cy="493.5" r="1.8" fill="#C15065"></circle><circle cx="167.7" cy="493.4" r="1.8" fill="#C15065"></circle><circle cx="176.9" cy="492.9" r="1.8" fill="#C15065"></circle><circle cx="186" cy="491.8" r="1.8" fill="#C15065"></circle><circle cx="195.2" cy="490.6" r="1.8" fill="#C15065"></circle><circle cx="204.4" cy="489.4" r="1.8" fill="#C15065"></circle><circle cx="213.5" cy="488.3" r="1.8" fill="#C15065"></circle><circle cx="222.7" cy="487.3" r="1.8" fill="#C15065"></circle><circle cx="231.9" cy="486.2" r="1.8" fill="#C15065"></circle><circle cx="241" cy="485" r="1.8" fill="#C15065"></circle><circle cx="250.2" cy="483.7" r="1.8" fill="#C15065"></circle><circle cx="259.4" cy="482.5" r="1.8" fill="#C15065"></circle><circle cx="268.5" cy="481.4" r="1.8" fill="#C15065"></circle><circle cx="277.7" cy="480.3" r="1.8" fill="#C15065"></circle><circle cx="286.9" cy="479.3" r="1.8" fill="#C15065"></circle><circle cx="296" cy="478.4" r="1.8" fill="#C15065"></circle><circle cx="305.2" cy="477.6" r="1.8" fill="#C15065"></circle><circle cx="314.3" cy="476.8" r="1.8" fill="#C15065"></circle><circle cx="323.5" cy="476.1" r="1.8" fill="#C15065"></circle><circle cx="332.7" cy="475.3" r="1.8" fill="#C15065"></circle><circle cx="341.8" cy="474.5" r="1.8" fill="#C15065"></circle><circle cx="351" cy="473.6" r="1.8" fill="#C15065"></circle><circle cx="360.2" cy="472.7" r="1.8" fill="#C15065"></circle><circle cx="369.3" cy="471.8" r="1.8" fill="#C15065"></circle><circle cx="378.5" cy="470.9" r="1.8" fill="#C15065"></circle><circle cx="387.7" cy="470" r="1.8" fill="#C15065"></circle><circle cx="396.8" cy="469" r="1.8" fill="#C15065"></circle><circle cx="406" cy="467.9" r="1.8" fill="#C15065"></circle><circle cx="415.2" cy="466.8" r="1.8" fill="#C15065"></circle><circle cx="424.3" cy="465.7" r="1.8" fill="#C15065"></circle><circle cx="433.5" cy="464.6" r="1.8" fill="#C15065"></circle><circle cx="442.7" cy="463.6" r="1.8" fill="#C15065"></circle><circle cx="451.8" cy="462.9" r="1.8" fill="#C15065"></circle><circle cx="461" cy="462.2" r="1.8" fill="#C15065"></circle><circle cx="470.1" cy="461.5" r="1.8" fill="#C15065"></circle><circle cx="479.3" cy="460.9" r="1.8" fill="#C15065"></circle><circle cx="488.5" cy="460.3" r="1.8" fill="#C15065"></circle><circle cx="497.6" cy="459.7" r="1.8" fill="#C15065"></circle><circle cx="506.8" cy="459.2" r="1.8" fill="#C15065"></circle><circle cx="516" cy="458.7" r="1.8" fill="#C15065"></circle><circle cx="525.1" cy="458.2" r="1.8" fill="#C15065"></circle><circle cx="534.3" cy="457.7" r="1.8" fill="#C15065"></circle><circle cx="543.5" cy="457.2" r="1.8" fill="#C15065"></circle><circle cx="552.6" cy="456.8" r="1.8" fill="#C15065"></circle><circle cx="561.8" cy="456.3" r="1.8" fill="#C15065"></circle><circle cx="571" cy="455.9" r="1.8" fill="#C15065"></circle><circle cx="580.1" cy="455.4" r="1.8" fill="#C15065"></circle><circle cx="589.3" cy="454.9" r="1.8" fill="#C15065"></circle><circle cx="598.5" cy="454.4" r="1.8" fill="#C15065"></circle><circle cx="607.6" cy="453.9" r="1.8" fill="#C15065"></circle><circle cx="616.8" cy="453.4" r="1.8" fill="#C15065"></circle><circle cx="625.9" cy="452.8" r="1.8" fill="#C15065"></circle><circle cx="635.1" cy="452.3" r="1.8" fill="#C15065"></circle><circle cx="644.3" cy="451.7" r="1.8" fill="#C15065"></circle><circle cx="653.4" cy="451.2" r="1.8" fill="#C15065"></circle><circle cx="662.6" cy="450.7" r="1.8" fill="#C15065"></circle><circle cx="671.8" cy="450.2" r="1.8" fill="#C15065"></circle><circle cx="680.9" cy="449.8" r="1.8" fill="#C15065"></circle><circle cx="690.1" cy="449.4" r="1.8" fill="#C15065"></circle><circle cx="699.3" cy="449.1" r="1.8" fill="#C15065"></circle><circle cx="708.4" cy="448.9" r="1.8" fill="#C15065"></circle><circle cx="717.6" cy="448.9" r="1.8" fill="#C15065"></circle></g></g></g></g></g></g><g class="SourcesFooter" style="fill:#5b5b5b"><g class="markdown-text-wrap"><text x="16.0" y="580.9" style="font-size:13.5px;line-height:1.2"><tspan x="16" y="580.9"><tspan style="font-weight:700">Data source:</tspan> United Nations, World Population Prospects (2022)</tspan></text></g><text font-size="13.50" x="792.7" y="580.9"><tspan x="792.69" y="580.895"><a target="_blank" style="fill: #5b5b5b;" href="https://creativecommons.org/licenses/by/4.0/">CC BY</a></tspan></text></g></svg>